<svg width="30" height="44" viewBox="0 0 30 44" fill="none" xmlns="http://www.w3.org/2000/svg">
<g clip-path="url(#clip0_2_3383)">
<path d="M21.0728 17.5214C20.9798 17.5937 19.348 18.5129 19.348 20.5578C19.348 22.9229 21.4239 23.7595 21.4859 23.7801C21.4756 23.8317 21.1554 24.9265 20.3911 26.0419C19.7095 27.0231 18.9968 28.0042 17.9124 28.0042C16.828 28.0042 16.5491 27.3742 15.2994 27.3742C14.0807 27.3742 13.6469 28.0249 12.6554 28.0249C11.6639 28.0249 10.9719 27.116 10.1767 26.0006C9.25752 24.6889 8.51392 22.6543 8.51392 20.723C8.51392 17.6246 10.5279 15.9824 12.5108 15.9824C13.5643 15.9824 14.4421 16.6744 15.1031 16.6744C15.7331 16.6744 16.7143 15.9411 17.9123 15.9411C18.3668 15.9412 19.9987 15.9826 21.0728 17.5214ZM17.3444 14.6296C17.8401 14.0409 18.1913 13.225 18.1913 12.4091C18.1913 12.2955 18.181 12.1819 18.1603 12.0889C17.3547 12.1199 16.3942 12.626 15.8158 13.2973C15.3614 13.8137 14.9379 14.6296 14.9379 15.4559C14.9379 15.5798 14.9586 15.7038 14.9689 15.7451C15.0205 15.7554 15.1032 15.7658 15.1858 15.7658C15.9088 15.7657 16.8176 15.2803 17.3444 14.6296Z" fill="white"/>
</g>
<defs>
<clipPath id="clip0_2_3383">
<rect width="14" height="44" fill="white" transform="translate(8)"/>
</clipPath>
</defs>
</svg>
