<svg width="13" height="16" viewBox="0 0 13 16" fill="none" xmlns="http://www.w3.org/2000/svg">
<path d="M3.02003 15.0583C2.77003 14.8983 2.51003 14.6683 2.25003 14.3483C2.07003 14.1383 1.85003 13.8383 1.59003 13.4483C1.14003 12.7983 0.770029 12.0483 0.490029 11.1983C0.180029 10.2683 0.0300293 9.37828 0.0300293 8.50828C0.0300293 7.53828 0.240029 6.68828 0.650029 5.97828C0.970029 5.40828 1.40003 4.95828 1.95003 4.62828C2.50003 4.28828 3.08003 4.11828 3.71003 4.10828C3.93003 4.10828 4.16003 4.13828 4.41003 4.19828C4.59003 4.24828 4.81003 4.32828 5.07003 4.42828C5.41003 4.55828 5.60003 4.63828 5.66003 4.65828C5.86003 4.72828 6.03003 4.75828 6.16003 4.75828C6.26003 4.75828 6.40003 4.72828 6.56003 4.67828C6.65003 4.64828 6.82003 4.58828 7.06003 4.48828C7.30003 4.39828 7.49003 4.32828 7.64003 4.26828C7.87003 4.19828 8.09003 4.13828 8.29003 4.10828C8.53003 4.06828 8.77003 4.05828 9.00003 4.07828C9.44003 4.10828 9.84003 4.19828 10.2 4.33828C10.83 4.58828 11.34 4.98828 11.72 5.54828C11.56 5.64828 11.41 5.75828 11.27 5.88828C10.96 6.16828 10.7 6.47828 10.51 6.81828C10.24 7.29828 10.11 7.82828 10.11 8.37828C10.12 9.04828 10.29 9.63828 10.63 10.1483C10.87 10.5183 11.19 10.8383 11.58 11.0983C11.77 11.2283 11.94 11.3183 12.1 11.3783C12.02 11.6383 11.93 11.8683 11.85 12.0583C11.63 12.5783 11.37 13.0483 11.08 13.4883C10.81 13.8783 10.6 14.1683 10.44 14.3583C10.19 14.6583 9.95003 14.8783 9.71003 15.0383C9.43003 15.2183 9.13003 15.3083 8.81003 15.3083C8.59003 15.3183 8.38003 15.2883 8.17003 15.2283C8.05003 15.1883 7.87003 15.1283 7.64003 15.0283C7.41003 14.9283 7.22003 14.8583 7.08003 14.8183C6.85003 14.7583 6.61003 14.7283 6.36003 14.7283C6.11003 14.7283 5.87003 14.7583 5.64003 14.8183C5.48003 14.8583 5.30003 14.9283 5.08003 15.0183C4.82003 15.1283 4.65003 15.1983 4.55003 15.2283C4.35003 15.2883 4.14003 15.3283 3.94003 15.3383C3.62003 15.3383 3.32003 15.2483 3.02003 15.0583ZM7.26003 3.63828C6.84003 3.84828 6.44003 3.93828 6.04003 3.90828C5.98003 3.50828 6.04003 3.09828 6.21003 2.64828C6.36003 2.26828 6.56003 1.91828 6.83003 1.60828C7.10003 1.29828 7.43003 1.03828 7.84003 0.828281C8.25003 0.618281 8.64003 0.508281 9.01003 0.488281C9.06003 0.908281 9.01003 1.32828 8.86003 1.76828C8.72003 2.16828 8.51003 2.52828 8.24003 2.85828C7.97003 3.18828 7.64003 3.44828 7.26003 3.63828Z" fill="#515154"/>
</svg>
